<svg xmlns="http://www.w3.org/2000/svg" xmlns:xlink="http://www.w3.org/1999/xlink" xmlns:serif="http://www.serif.com/" viewBox="0 0 512 640" version="1.1" xml:space="preserve" style="" x="0px" y="0px" fill-rule="evenodd" clip-rule="evenodd" stroke-linejoin="round" stroke-miterlimit="2"><g transform="matrix(1,0,0,1,-1686,-562)"><g><path d="M1942,626.429L1941.95,626.43L1941.95,626.43C1941.92,626.43 1941.89,626.431 1941.86,626.431L1941.86,626.431C1940.98,626.456 1940.16,626.705 1939.46,627.123L1939.43,627.139C1938.69,627.58 1938.08,628.209 1937.64,628.976L1937.63,629C1937.51,629.22 1937.4,629.451 1937.31,629.689L1896.28,734.2L1781.99,734.2C1779.23,734.2 1776.99,736.438 1776.99,739.2L1776.99,794.151C1769.61,796.313 1764.22,803.134 1764.22,811.205C1764.22,821.012 1772.18,828.974 1781.99,828.974C1791.8,828.974 1799.76,821.012 1799.76,811.205C1799.76,803.134 1794.36,796.313 1786.99,794.151L1786.99,744.2L1892.35,744.2L1867.41,807.731C1867.19,808.287 1867.08,808.861 1867.06,809.429L1867.06,809.451C1867.05,810.059 1867.15,810.68 1867.37,811.283L1867.39,811.335L1867.39,811.356L1867.41,811.388L1920.18,945.801C1885.77,947.6 1857.21,953.618 1842.65,961.477C1834.03,966.133 1829.92,971.926 1829.92,977.406C1829.92,980.239 1830.9,983.048 1832.97,985.727C1835.31,988.749 1839.25,991.722 1844.68,994.377C1862.93,1003.3 1899.66,1009.57 1942,1009.57C1984.34,1009.57 2021.07,1003.3 2039.32,994.377C2044.75,991.722 2048.69,988.749 2051.03,985.727C2053.1,983.048 2054.08,980.239 2054.08,977.406C2054.08,971.926 2049.97,966.133 2041.35,961.477C2026.79,953.618 1998.23,947.6 1963.82,945.801L1992.35,873.133L2102.01,873.133C2104.77,873.133 2107.01,870.895 2107.01,868.133L2107.01,813.183C2114.39,811.021 2119.78,804.199 2119.78,796.128C2119.78,786.321 2111.82,778.359 2102.01,778.359C2092.2,778.359 2084.24,786.321 2084.24,796.128C2084.24,804.199 2089.64,811.021 2097.01,813.183L2097.01,863.133L1996.28,863.133L2016.59,811.388L2016.61,811.356L2016.61,811.332L2016.63,811.283C2016.85,810.68 2016.95,810.059 2016.94,809.451L2016.94,809.429C2016.92,808.861 2016.81,808.287 2016.59,807.731L1946.69,629.689C1946.6,629.451 1946.49,629.22 1946.37,629L1946.36,628.976C1945.92,628.209 1945.31,627.58 1944.57,627.139L1944.54,627.123C1943.84,626.706 1943.02,626.456 1942.14,626.431L1942.14,626.431C1942.11,626.431 1942.08,626.43 1942.05,626.43L1942.03,626.429L1942,626.429ZM1959.96,955.627L1946.69,989.428C1946.6,989.667 1946.49,989.897 1946.37,990.117L1946.36,990.141C1945.92,990.908 1945.31,991.537 1944.57,991.978L1944.54,991.994C1943.84,992.412 1943.02,992.661 1942.14,992.686L1942.14,992.686C1942.11,992.687 1942.08,992.687 1942.05,992.688L1942.03,992.688L1942,992.688L1941.95,992.688L1941.95,992.688C1941.92,992.687 1941.89,992.687 1941.86,992.686L1941.86,992.686C1940.98,992.661 1940.16,992.412 1939.46,991.994L1939.43,991.978C1938.69,991.537 1938.08,990.908 1937.64,990.141L1937.63,990.117C1937.51,989.897 1937.4,989.667 1937.31,989.428L1924.04,955.627C1894.91,956.891 1869.86,961.152 1854.24,967.184C1849.31,969.085 1845.39,971.121 1842.73,973.345C1841.11,974.695 1839.92,975.922 1839.92,977.406C1839.92,978.488 1840.63,979.437 1841.61,980.443C1843.32,982.198 1845.87,983.825 1849.07,985.394C1866.49,993.911 1901.6,999.571 1942,999.571C1982.4,999.571 2017.51,993.911 2034.93,985.394C2038.13,983.825 2040.68,982.198 2042.39,980.443C2043.37,979.437 2044.08,978.488 2044.08,977.406C2044.08,975.922 2042.89,974.695 2041.27,973.345C2038.61,971.121 2034.69,969.085 2029.76,967.184C2014.14,961.152 1989.09,956.891 1959.96,955.627ZM1984.32,866.225L2002.14,820.832L1947,851.964L1947,961.272L1951.91,948.757C1951.94,948.697 1951.96,948.637 1951.98,948.578L1984.25,866.394C1984.27,866.337 1984.3,866.281 1984.32,866.225ZM1932.09,948.756L1937,961.272L1937,851.964L1881.86,820.832L1932.02,948.578C1932.04,948.637 1932.06,948.696 1932.09,948.756ZM1855.58,848.965C1855.58,840.338 1848.57,833.335 1839.95,833.335C1839.95,833.335 1712.63,833.335 1712.63,833.335C1704,833.335 1697,840.338 1697,848.965C1697,848.965 1697,928.095 1697,928.095C1697,936.722 1704,943.725 1712.63,943.725L1839.95,943.725C1848.57,943.725 1855.58,936.722 1855.58,928.095C1855.58,928.095 1855.58,848.965 1855.58,848.965ZM1845.58,848.965L1845.58,928.095C1845.58,931.203 1843.06,933.725 1839.95,933.725C1839.95,933.725 1712.63,933.725 1712.63,933.725C1709.52,933.725 1707,931.203 1707,928.095L1707,848.965C1707,845.858 1709.52,843.335 1712.63,843.335L1839.95,843.335C1843.06,843.335 1845.58,845.858 1845.58,848.965ZM1779.55,859.075C1779.55,856.314 1777.31,854.075 1774.55,854.075C1754.58,854.075 1738.36,870.292 1738.36,890.266C1738.36,910.241 1754.58,926.458 1774.55,926.458C1794.53,926.458 1810.74,910.241 1810.74,890.266C1810.74,887.505 1808.51,885.266 1805.74,885.266L1779.55,885.266C1779.55,885.266 1779.55,859.075 1779.55,859.075ZM1769.55,864.553L1769.55,890.266C1769.55,893.028 1771.79,895.266 1774.55,895.266L1800.27,895.266C1797.93,907.334 1787.3,916.458 1774.55,916.458C1760.1,916.458 1748.36,904.722 1748.36,890.266C1748.36,877.521 1757.49,866.889 1769.55,864.553L1769.55,864.553ZM1790.43,850.602C1787.67,850.602 1785.43,852.841 1785.43,855.602L1785.43,874.391C1785.43,877.152 1787.67,879.391 1790.43,879.391L1809.22,879.391C1811.98,879.391 1814.22,877.152 1814.22,874.391C1814.22,861.262 1803.56,850.602 1790.43,850.602ZM1795.43,861.538C1799.02,862.938 1801.88,865.8 1803.28,869.391C1803.28,869.391 1795.43,869.391 1795.43,869.391C1795.43,869.391 1795.43,861.538 1795.43,861.538L1795.43,861.538ZM1937,840.481L1937,657.845L1904.38,740.94C1904.35,740.997 1904.33,741.053 1904.31,741.108L1878.3,807.341L1937,840.481ZM1947,657.845L1947,840.481L2005.7,807.341L1947,657.845ZM1781.99,803.436C1786.28,803.436 1789.76,806.917 1789.76,811.205C1789.76,815.493 1786.28,818.974 1781.99,818.974C1777.7,818.974 1774.22,815.493 1774.22,811.205C1774.22,806.917 1777.7,803.436 1781.99,803.436ZM2102.01,803.897C2097.72,803.897 2094.24,800.416 2094.24,796.128C2094.24,791.84 2097.72,788.359 2102.01,788.359C2106.3,788.359 2109.78,791.84 2109.78,796.128C2109.78,800.416 2106.3,803.897 2102.01,803.897ZM2187,679.238C2187,670.612 2180,663.608 2171.37,663.608L2044.05,663.608C2035.43,663.608 2028.42,670.612 2028.42,679.238L2028.42,758.369C2028.42,766.995 2035.43,773.999 2044.05,773.999C2044.05,773.999 2171.37,773.999 2171.37,773.999C2180,773.999 2187,766.995 2187,758.369L2187,679.238ZM2177,679.238L2177,758.369C2177,761.476 2174.48,763.999 2171.37,763.999L2044.05,763.999C2040.94,763.999 2038.42,761.476 2038.42,758.369C2038.42,758.369 2038.42,679.238 2038.42,679.238C2038.42,676.131 2040.94,673.608 2044.05,673.608C2044.05,673.608 2171.37,673.608 2171.37,673.608C2174.48,673.608 2177,676.131 2177,679.238ZM2078.39,750.008L2137.03,750.008C2139.79,750.008 2142.03,747.768 2142.03,745.008C2142.03,742.249 2139.79,740.008 2137.03,740.008L2078.39,740.008C2075.63,740.008 2073.39,742.249 2073.39,745.008C2073.39,747.768 2075.63,750.008 2078.39,750.008ZM2078.39,723.803L2137.03,723.803C2139.79,723.803 2142.03,721.563 2142.03,718.803C2142.03,716.044 2139.79,713.803 2137.03,713.803L2078.39,713.803C2075.63,713.803 2073.39,716.044 2073.39,718.803C2073.39,721.563 2075.63,723.803 2078.39,723.803ZM2100.66,697.598L2137.03,697.598C2139.79,697.598 2142.03,695.358 2142.03,692.598C2142.03,689.839 2139.79,687.598 2137.03,687.598L2100.66,687.598C2097.9,687.598 2095.66,689.839 2095.66,692.598C2095.66,695.358 2097.9,697.598 2100.66,697.598Z"/></g></g><text x="0" y="527" fill="#000000" font-size="5px" font-weight="bold" font-family="'Helvetica Neue', Helvetica, Arial-Unicode, Arial, Sans-serif">Created by Anditii Creative</text><text x="0" y="532" fill="#000000" font-size="5px" font-weight="bold" font-family="'Helvetica Neue', Helvetica, Arial-Unicode, Arial, Sans-serif">from the Noun Project</text></svg>