<svg xmlns="http://www.w3.org/2000/svg" xmlns:xlink="http://www.w3.org/1999/xlink" xmlns:serif="http://www.serif.com/" viewBox="0 0 512 640" version="1.1" xml:space="preserve" style="" x="0px" y="0px" fill-rule="evenodd" clip-rule="evenodd" stroke-linejoin="round" stroke-miterlimit="2"><g transform="matrix(1,0,0,1,0,-1686)"><g><path d="M365.434,1947.91L365.386,1947.91L365.381,1947.91C365.35,1947.91 365.32,1947.91 365.29,1947.91L365.289,1947.91C364.416,1947.94 363.598,1948.19 362.892,1948.61L362.866,1948.62C362.129,1949.06 361.508,1949.69 361.077,1950.46L361.063,1950.48C360.941,1950.7 360.834,1950.93 360.745,1951.17L314.595,2068.71C314.376,2069.27 314.264,2069.84 314.25,2070.41L314.249,2070.43C314.236,2071.04 314.333,2071.66 314.556,2072.27L314.575,2072.32L314.583,2072.34L314.596,2072.37L360.745,2189.91C360.834,2190.15 360.941,2190.38 361.063,2190.6L361.077,2190.62C361.508,2191.39 362.129,2192.02 362.866,2192.46L362.892,2192.48C363.599,2192.89 364.416,2193.14 365.289,2193.17L365.29,2193.17C365.32,2193.17 365.35,2193.17 365.381,2193.17L365.401,2193.17L365.434,2193.17L365.482,2193.17L365.487,2193.17C365.517,2193.17 365.547,2193.17 365.577,2193.17L365.579,2193.17C366.452,2193.14 367.269,2192.89 367.975,2192.48L368.002,2192.46C368.738,2192.02 369.359,2191.39 369.791,2190.62L369.804,2190.6C369.927,2190.38 370.033,2190.15 370.122,2189.91L416.272,2072.37L416.284,2072.34L416.293,2072.32L416.312,2072.27C416.534,2071.66 416.632,2071.04 416.618,2070.43L416.618,2070.41C416.603,2069.84 416.491,2069.27 416.273,2068.71L370.122,1951.17C370.033,1950.93 369.927,1950.7 369.804,1950.48L369.791,1950.46C369.359,1949.69 368.738,1949.06 368.002,1948.62L367.975,1948.61C367.269,1948.19 366.452,1947.94 365.579,1947.91L365.577,1947.91C365.547,1947.91 365.517,1947.91 365.487,1947.91L365.466,1947.91L365.434,1947.91ZM236.377,2115.62C223.014,2115.62 212.165,2126.47 212.165,2139.84C212.165,2153.2 223.014,2164.05 236.377,2164.05C249.741,2164.05 260.59,2153.2 260.59,2139.84C260.59,2126.47 249.741,2115.62 236.377,2115.62ZM360.434,2161.76L360.434,2099.54L329.047,2081.82L360.434,2161.76ZM370.434,2099.54L370.434,2161.76L401.821,2081.82L370.434,2099.54ZM236.377,2125.62C244.221,2125.62 250.59,2131.99 250.59,2139.84C250.59,2147.68 244.221,2154.05 236.377,2154.05C228.533,2154.05 222.165,2147.68 222.165,2139.84C222.165,2131.99 228.533,2125.62 236.377,2125.62ZM325.491,2068.32L360.434,2088.05L360.434,1979.33L325.491,2068.32ZM370.434,1979.33L370.434,2088.05L405.376,2068.32L370.434,1979.33ZM94.485,1830.87L94.429,1830.9L94.431,1830.9L94.459,1830.88L94.463,1830.88L94.485,1830.87L94.57,1830.82C95.929,1830.08 96.939,1839.59 96.998,1840.16L96.936,1840.11C96.81,1839.01 95.75,1830.22 94.463,1830.88L94.132,1831.08L93.896,1831.23L93.5,1831.53C92.887,1832.06 92.548,1832.63 92.413,1833.23L92.336,1833.42C92.451,1832.76 92.808,1832.12 93.5,1831.53L93.677,1831.39L93.881,1831.24L93.896,1831.23L93.92,1831.22L94.074,1831.11L94.057,1831.12C92.459,1832.13 91.049,1833.48 89.95,1835.14L89.947,1835.15L89.934,1835.17L89.915,1835.2L89.916,1835.2L89.908,1835.21L89.901,1835.22L89.872,1835.27L89.858,1835.29L89.718,1835.52L89.716,1835.52L89.669,1835.61L89.651,1835.62L89.646,1835.63L89.636,1835.65L89.642,1835.66L89.57,1835.8L89.382,1836.24C89.281,1836.52 89.215,1836.79 89.179,1837.05C89.041,1837.82 89.085,1838.62 89.315,1839.38C89.044,1838.79 88.909,1838.14 88.989,1837.44C89.061,1836.97 89.198,1836.52 89.4,1836.09L89.498,1835.89L89.554,1835.78L89.566,1835.76C89.571,1835.75 89.576,1835.74 89.581,1835.74L89.59,1835.72L89.636,1835.65L89.635,1835.64L89.646,1835.63L89.701,1835.54L89.71,1835.53L89.716,1835.52L89.849,1835.3L89.858,1835.29L89.901,1835.22L89.901,1835.22L89.902,1835.22L89.901,1835.22L89.901,1835.22L89.849,1835.3L89.701,1835.54L89.634,1835.64L89.635,1835.64L89.627,1835.66C89.614,1835.68 89.602,1835.7 89.59,1835.72L89.577,1835.74L89.554,1835.78C89.538,1835.81 89.522,1835.84 89.507,1835.87L89.498,1835.89L89.48,1835.92C89.453,1835.98 89.426,1836.03 89.4,1836.09L89.318,1836.25L89.409,1836.06L89.48,1835.92C89.489,1835.9 89.498,1835.89 89.507,1835.87L89.542,1835.8L89.634,1835.64L89.634,1835.64L89.506,1835.86C89.506,1835.86 21.183,1954.2 21.183,1954.2C18.363,1959.08 18.824,1965.2 22.345,1969.6C22.345,1969.6 90.639,2055.09 90.639,2055.09C91.562,2056.28 92.694,2057.33 94.02,2058.19L94.017,2058.19L94.02,2058.19L94.117,2058.25L94.116,2058.25L94.117,2058.25L94.284,2058.36L94.283,2058.36L94.284,2058.36L94.369,2058.41L94.364,2058.41L94.369,2058.41L94.394,2058.42L94.386,2058.42L94.394,2058.42L94.508,2058.49L94.488,2058.48L94.509,2058.49L94.642,2058.56L94.61,2058.55L94.829,2058.67L94.827,2058.67L94.829,2058.67L94.889,2058.71L94.888,2058.71L94.939,2058.74L94.938,2058.73L94.939,2058.74L95.116,2058.83L95.114,2058.83L95.116,2058.83L95.223,2058.88L95.219,2058.88L95.223,2058.88C96.629,2059.61 98.109,2060.06 99.601,2060.26C99.591,2060.26 207.773,2076.66 207.773,2076.66C213.35,2077.51 218.876,2074.85 221.696,2069.96C221.696,2069.96 290.018,1951.63 290.018,1951.63L289.929,1951.68C289.114,1952.77 287.877,1953.49 286.511,1953.65L285.688,1954.13L286.48,1953.65L286.511,1953.65L289.929,1951.68L290.035,1951.54L290.088,1951.5L290.036,1951.53L290.035,1951.54L286.48,1953.65L286.367,1953.67L285.744,1954.03L286.349,1953.67L286.367,1953.67L290.036,1951.53L290.08,1951.46L288.222,1952.55L286.349,1953.67L286.313,1953.67L288.222,1952.55L288.598,1952.33L290.08,1951.46L290.098,1951.44L290.139,1951.41L288.598,1952.33L287.334,1953.07L286.309,1953.67L286.295,1953.67L285.771,1953.98L286.279,1953.67L286.295,1953.67L287.334,1953.07L290.098,1951.44L290.121,1951.4L290.156,1951.38L290.177,1951.34L290.178,1951.34L290.177,1951.34L290.37,1950.98L290.371,1950.98L290.37,1950.98L290.391,1950.93L290.369,1950.98L285.926,1953.68L286.233,1953.49L290.394,1950.93L290.415,1950.89C291.307,1949.1 291.772,1947.2 291.844,1945.31L291.845,1945.3L291.844,1945.31L290.921,1946.19L291.078,1946.02L291.384,1945.65L291.848,1945.2L291.768,1945.28L291.848,1945.2L291.402,1945.63L291.53,1945.45L291.677,1945.22L291.852,1945.05L291.678,1945.22L291.714,1945.16L291.852,1945.02L291.716,1945.16C291.756,1945.08 291.789,1945.01 291.812,1944.94L291.854,1944.9L291.812,1944.94L291.825,1944.9L291.854,1944.87L291.825,1944.9L291.841,1944.84L291.847,1944.79L291.854,1944.78L291.854,1944.73L291.854,1944.73L291.853,1944.68C291.838,1942.34 291.226,1940.02 290.036,1937.95L290.033,1937.94L290.004,1937.89L290.013,1937.91L289.699,1937.4C289.4,1936.92 289.071,1936.47 288.712,1936.04C288.735,1936.07 220.447,1850.59 220.447,1850.59C218.294,1847.89 215.204,1846.11 211.794,1845.59C211.794,1845.59 103.621,1829.19 103.621,1829.19C103.056,1829.1 102.489,1829.04 101.923,1829.02L101.914,1829.02L101.816,1829.02L101.8,1829.01L101.671,1829.01L101.655,1829.01L101.487,1829.01L101.468,1829.01L101.404,1829.01L101.404,1829.01L101.353,1829.01L101.362,1829.01L101.282,1829.01L101.353,1829.01L101.346,1829.01L101.316,1829.01C98.922,1829.02 96.601,1829.65 94.57,1830.82L94.563,1830.82L94.485,1830.87ZM101.476,1839.01L101.594,1839.01L101.525,1839.01L101.728,1839.01C101.663,1839.01 101.598,1839.01 101.533,1839.01C101.689,1839.02 101.846,1839.03 102.002,1839.06C102.03,1839.06 102.057,1839.07 102.085,1839.07L210.295,1855.48C211.217,1855.62 212.052,1856.1 212.634,1856.83C212.634,1856.83 280.946,1942.34 280.946,1942.34C280.964,1942.36 280.983,1942.38 281.002,1942.41C281.101,1942.53 281.191,1942.65 281.273,1942.78L281.393,1942.85L282.185,1943.3L281.294,1942.81L282.418,1943.43L283.241,1943.91L281.717,1943.07L281.305,1942.83L281.552,1942.97L281.312,1942.84L281.607,1943.01L282.353,1943.44L281.773,1943.12L281.32,1942.85L281.756,1943.11L281.328,1942.87L281.891,1943.19L284.726,1944.85L281.371,1942.94L281.355,1942.91C281.687,1943.49 281.855,1944.13 281.854,1944.78L281.856,1944.78L281.856,1944.78L281.85,1945.21L281.856,1945.36L281.888,1945.75L281.916,1945.93C281.944,1946.13 281.986,1946.32 282.038,1946.5L282.033,1946.49C281.921,1946.11 281.856,1945.68 281.85,1945.21L281.851,1944.92C281.832,1945.44 281.705,1945.95 281.462,1946.43L281.447,1946.47L281.446,1946.47L281.427,1946.51L281.425,1946.51L281.414,1946.53L281.401,1946.55L281.417,1946.52L281.425,1946.51L281.44,1946.48L281.446,1946.47L281.458,1946.44L281.399,1946.55L281.396,1946.56L281.364,1946.62C280.453,1948.26 280.681,1949.65 281.376,1950.76C281.461,1950.95 281.558,1951.13 281.668,1951.31C282.348,1952.41 283.42,1953.2 284.642,1953.52C285.092,1953.76 285.453,1953.91 285.629,1953.98L285.688,1954.13C283.902,1954.13 282.251,1953.17 281.358,1951.63C280.465,1950.08 280.465,1948.17 281.358,1946.63C281.358,1946.63 213.036,2064.96 213.036,2064.96C212.273,2066.28 210.779,2067 209.272,2066.77C209.272,2066.77 101.053,2050.37 101.053,2050.37C101.024,2050.36 100.995,2050.36 100.965,2050.36C100.556,2050.3 100.15,2050.18 99.765,2049.98L99.61,2049.89L99.609,2049.89L99.604,2049.89L99.459,2049.8C99.094,2049.57 98.782,2049.28 98.529,2048.95C98.511,2048.93 98.493,2048.9 98.475,2048.88L30.158,1963.36C29.206,1962.17 29.081,1960.52 29.844,1959.2C29.844,1959.2 98.166,1840.86 98.166,1840.86C98.174,1840.85 98.182,1840.83 98.191,1840.82L98.189,1840.82L98.281,1840.67C98.577,1840.22 98.959,1839.85 99.393,1839.58L99.356,1839.59L99.403,1839.57L99.425,1839.56L99.404,1839.57L99.432,1839.55L99.447,1839.55L99.432,1839.55L99.466,1839.53L99.472,1839.53L99.466,1839.53L99.472,1839.53L99.481,1839.53L99.472,1839.53L99.478,1839.53L99.481,1839.53L99.478,1839.53L99.52,1839.5C100.079,1839.18 100.719,1839.01 101.38,1839.01L101.476,1839.01ZM97.286,2059.32L97.266,2059.32L97.264,2059.32L97.286,2059.32ZM97.11,2059.22L96.709,2059.11L96.684,2059.11L97.11,2059.22ZM97.013,2059.16L96.831,2059.11L96.819,2059.11L97.013,2059.16ZM268.562,1953.97C269.388,1952.54 269.454,1950.79 268.737,1949.3C268.021,1947.81 266.615,1946.77 264.981,1946.52L175.103,1932.9C173.068,1932.59 171.052,1933.56 170.023,1935.34L111.05,2037.49C110.223,2038.92 110.158,2040.66 110.874,2042.15C111.59,2043.64 112.996,2044.68 114.63,2044.93L204.509,2058.56C206.543,2058.87 208.559,2057.89 209.588,2056.11L268.562,1953.97ZM256.238,1955.31L202.634,2048.16C202.634,2048.16 123.373,2036.14 123.373,2036.14C123.373,2036.14 176.977,1943.3 176.977,1943.3L256.238,1955.31ZM39.232,1957.76C38.203,1959.54 38.371,1961.77 39.655,1963.38L96.395,2034.4C97.427,2035.69 99.029,2036.39 100.677,2036.27C102.325,2036.14 103.805,2035.21 104.632,2033.78L163.605,1931.64C164.634,1929.85 164.466,1927.62 163.182,1926.02L106.442,1854.99C105.41,1853.7 103.808,1853 102.16,1853.13C100.512,1853.25 99.032,1854.18 98.205,1855.61L39.232,1957.76ZM49.598,1959.8L103.202,1866.96C103.202,1866.96 153.239,1929.59 153.239,1929.59C153.239,1929.59 99.635,2022.44 99.635,2022.44L49.598,1959.8ZM285.723,1953.98L285.609,1953.93L285.629,1953.98L285.744,1954.03L285.723,1953.98ZM285.753,1953.97L285.713,1953.96L285.723,1953.98L285.762,1953.99L285.753,1953.97ZM285.761,1953.96L285.744,1953.95L285.753,1953.97L285.771,1953.98L285.761,1953.96ZM285.724,1953.87L285.64,1953.68L285.629,1953.68L285.678,1953.79L285.724,1953.87L285.761,1953.96L285.779,1953.97L285.724,1953.87ZM285.61,1953.61L285.64,1953.68L285.925,1953.69L285.923,1953.68L285.583,1953.55L285.61,1953.61ZM285.925,1953.69L286.264,1953.68L290.149,1951.36L290.222,1951.24L290.369,1950.98L285.925,1953.69ZM285.924,1953.68L285.921,1953.68L285.923,1953.68L285.926,1953.68L285.924,1953.68ZM283.48,1948.8L283.599,1948.91C284.536,1950.64 285.486,1952.71 285.809,1953.43L285.916,1953.66L285.928,1953.68L285.924,1953.68L285.916,1953.66L285.905,1953.64L285.809,1953.43C285.47,1952.7 284.456,1950.55 283.48,1948.8ZM286.279,1953.67L286.947,1953.28L290.121,1951.4L290.149,1951.36L286.947,1953.28L286.269,1953.67L286.279,1953.67ZM283.56,1948.84L283.452,1948.64L283.843,1948.94C285.134,1949.83 286.612,1950.05 286.824,1950.08L286.848,1950.11C285.651,1950.11 284.5,1949.68 283.599,1948.91L283.56,1948.84ZM291.844,1945.31C291.739,1947.99 289.533,1950.11 286.848,1950.11L289.221,1947.83C289.808,1947.31 290.405,1946.75 290.881,1946.23L291.844,1945.31ZM286.835,1950.06L286.81,1950.06L286.824,1950.08L286.849,1950.08L286.835,1950.06ZM288.892,1948.12L288.628,1948.34L286.849,1950.08L289.039,1947.99L288.892,1948.12ZM286.797,1950L286.781,1950L286.835,1950.06L286.85,1950.07L286.797,1950ZM286.801,1949.94L286.749,1949.94L286.797,1950L286.852,1950.01L286.801,1949.94ZM288.241,1948.67L287.952,1948.91L286.852,1950.01L288.241,1948.67ZM286.825,1949.92L286.773,1949.91L286.801,1949.94L286.853,1949.95L286.825,1949.92ZM286.795,1949.85L286.768,1949.85L286.825,1949.92L286.853,1949.92L286.795,1949.85ZM287.555,1949.24L287.448,1949.32L286.853,1949.92L287.555,1949.24ZM286.799,1949.79L286.74,1949.78L286.795,1949.85L286.854,1949.86L286.799,1949.79ZM287.152,1949.56L287.142,1949.57L286.854,1949.86L287.152,1949.56ZM286.609,1949.55L286.536,1949.46L286.266,1949.19L286.337,1949.28L286.609,1949.55L286.799,1949.79L286.855,1949.8L286.609,1949.55ZM286.522,1949.44C285.41,1948.06 281.869,1943.73 281.855,1944.73L281.856,1944.78C281.899,1944.1 283.669,1946.08 285.089,1947.78C285.525,1948.29 285.929,1948.78 286.238,1949.16L286.522,1949.44L286.536,1949.46L286.854,1949.78L286.522,1949.44ZM282.033,1946.49L282.088,1946.67C281.808,1946.36 281.587,1946.25 281.465,1946.44L281.463,1946.43L281.482,1946.39C281.59,1946.18 281.785,1946.25 282.033,1946.49ZM290.044,1937.97C290.676,1939.28 285.68,1945.4 285.68,1945.4C287.468,1945.4 289.12,1944.45 290.013,1942.9C290.891,1941.38 290.902,1939.5 290.044,1937.97ZM281.371,1942.94L285.385,1945.23L285.68,1945.4C283.908,1945.4 282.269,1944.47 281.371,1942.94ZM282.679,1943.63L281.92,1943.2L284.927,1944.96L285.665,1945.38L282.679,1943.63ZM284.021,1944.35L281.901,1943.17L283.474,1944.07L285.59,1945.25L284.021,1944.35ZM284.044,1944.33L282.826,1943.66L283.92,1944.28L285.543,1945.18L284.044,1944.33ZM282.403,1943.4L283.671,1944.11L285.506,1945.12L282.403,1943.4ZM282.426,1943.43L283.116,1943.81L282.02,1943.19L281.435,1942.87L282.426,1943.43ZM257.272,1937.83L256.903,1937.8L256.694,1937.77L173.709,1925.19C172.465,1925 171.338,1924.35 170.552,1923.37L118.149,1857.77C116.865,1856.16 116.697,1853.93 117.726,1852.15C118.755,1850.37 120.77,1849.4 122.805,1849.71L205.815,1862.29L205.395,1867.86C205.821,1864.68 206.79,1861.38 208.987,1864.13L261.375,1929.71L260.928,1930.64C260.902,1933.61 257.468,1937.83 257.468,1937.83L257.272,1937.83ZM202.38,1871.89L245.59,1925.98L177.144,1915.6L133.934,1861.51L202.38,1871.89ZM318.271,1858.26C304.908,1858.26 294.059,1869.1 294.059,1882.47C294.059,1895.83 304.908,1906.68 318.271,1906.68C331.634,1906.68 342.484,1895.83 342.484,1882.47C342.484,1869.1 331.634,1858.26 318.271,1858.26ZM449.603,1767.73L449.574,1767.73C449.322,1767.73 449.069,1767.75 448.818,1767.8L388.651,1776.92C387.407,1777.11 386.279,1777.76 385.494,1778.74L347.511,1826.29C347.348,1826.48 347.202,1826.69 347.072,1826.91L347.057,1826.93C346.608,1827.69 346.373,1828.54 346.359,1829.4L346.359,1829.43C346.35,1830.25 346.543,1831.09 346.958,1831.85L346.959,1831.86C346.973,1831.88 346.988,1831.91 347.002,1831.93L347.013,1831.95L347.029,1831.98C347.029,1831.98 385.022,1897.79 385.022,1897.79C386.051,1899.57 388.066,1900.54 390.101,1900.23L450.275,1891.11C450.868,1891.03 451.456,1890.84 452.01,1890.54L452.041,1890.52L452.086,1890.5L452.111,1890.48L452.139,1890.47L452.167,1890.45L452.195,1890.43L452.211,1890.42C452.751,1890.09 453.207,1889.68 453.572,1889.2L491.559,1841.65C492.844,1840.05 493.012,1837.81 491.983,1836.03L453.99,1770.23L453.966,1770.18L453.963,1770.18C453.948,1770.15 453.932,1770.13 453.917,1770.1L453.916,1770.1C453.458,1769.36 452.833,1768.78 452.118,1768.37L452.091,1768.36C451.34,1767.94 450.484,1767.72 449.603,1767.73ZM318.271,1868.26C326.115,1868.26 332.484,1874.62 332.484,1882.47C332.484,1890.31 326.115,1896.68 318.271,1896.68C310.427,1896.68 304.059,1890.31 304.059,1882.47C304.059,1874.62 310.427,1868.26 318.271,1868.26ZM441.618,1882.31L408.995,1825.8L359.352,1833.33L391.976,1889.83L441.618,1882.31ZM448.993,1781.57L417.655,1820.8L450.278,1877.31L481.617,1838.08L448.993,1781.57ZM93.903,1843.21L93.899,1843.21L93.896,1843.2L93.884,1843.2L93.899,1843.21L93.912,1843.23L93.903,1843.21ZM93.284,1842.91C93.398,1842.96 93.512,1843.02 93.626,1843.07L93.885,1843.18L93.896,1843.2L93.9,1843.2L93.903,1843.21L93.921,1843.22L93.915,1843.2L93.9,1843.2L93.894,1843.19L93.885,1843.18L93.735,1842.91L93.42,1842.88L93.148,1842.84L93.284,1842.91ZM89.2,1836.95L89.179,1837.05C88.761,1840.05 92.305,1842.07 93.62,1842.71L93.735,1842.91L93.785,1842.92L93.894,1843.19L93.912,1843.19L93.803,1842.92L93.785,1842.92L93.718,1842.76L93.62,1842.71L93.613,1842.7C92.282,1842.03 88.725,1839.95 89.2,1836.95ZM94.095,1842.93L94.093,1842.93L94.091,1842.93L94.094,1842.93L94.097,1842.94L94.095,1842.93ZM93.365,1841.85L93.739,1842.76L94.091,1842.92L94.094,1842.93L94.095,1842.93L94.099,1842.93L94.098,1842.93L94.094,1842.93L94.093,1842.93L94.091,1842.92L92.825,1840.58L93.365,1841.85ZM89.872,1835.27L89.723,1835.52C89.827,1835.41 89.969,1835.45 90.136,1835.6L89.917,1835.2C90.731,1834.18 93.968,1842.6 94.093,1842.93L94.097,1842.93C94.011,1842.7 90.763,1833.96 89.95,1835.14L89.934,1835.17L89.916,1835.2L89.917,1835.2L89.908,1835.21L89.872,1835.27ZM93.718,1842.76L93.743,1842.77L93.739,1842.76L93.713,1842.75L93.718,1842.76ZM97.379,1840.16L97.356,1840.16L96.734,1840.35L97.379,1840.16ZM96.757,1840.33L96.754,1840.31L96.559,1840.15L96.526,1840.15L96.757,1840.33ZM96.76,1840.25L96.744,1840.23L96.754,1840.31L96.77,1840.32L96.76,1840.25ZM97.2,1840.2L97.33,1840.16L97.308,1840.17L96.77,1840.32L97.2,1840.2ZM96.811,1840.22L96.734,1840.15L96.736,1840.17L96.75,1840.17L96.76,1840.25L96.82,1840.29L96.811,1840.22ZM96.863,1840.22L96.807,1840.18L96.811,1840.22L96.868,1840.26L96.863,1840.22ZM97.215,1840.17L97.201,1840.17L96.868,1840.26L97.215,1840.17ZM96.885,1840.17L96.856,1840.17L96.852,1840.14L96.796,1840.09L96.806,1840.17L96.856,1840.17L96.863,1840.22L96.894,1840.25L96.885,1840.17ZM96.949,1840.22L96.944,1840.17L96.897,1840.17L96.949,1840.22ZM97.11,1840.17L97.104,1840.17L96.949,1840.22L97.11,1840.17ZM97.001,1840.18L97,1840.17L96.988,1840.17L97.001,1840.18ZM96.75,1840.17L96.797,1840.17L96.744,1840.13L96.75,1840.17ZM96.852,1840.14L96.884,1840.16L96.875,1840.08L96.841,1840.05L96.852,1840.14ZM92.475,1833.09L92.413,1833.23C91.774,1836.04 95.603,1839.37 96.559,1840.15L96.655,1840.16C95.767,1839.45 91.658,1835.99 92.475,1833.09ZM96.875,1840.08L96.939,1840.13L96.936,1840.11L96.872,1840.05L96.875,1840.08ZM101.923,1829.02C103.572,1829.13 101.728,1839.01 101.728,1839.01C104.451,1839.01 106.674,1836.83 106.727,1834.11C106.78,1831.39 104.644,1829.12 101.923,1829.02L101.922,1829.02L101.923,1829.02ZM101.499,1839.01L101.482,1839.01L101.657,1839.01L101.499,1839.01ZM101.393,1839L101.398,1838.97L101.392,1838.96L101.392,1839L101.399,1839.01L101.393,1839ZM100.604,1829.07C99.066,1829.32 98.561,1830.38 98.595,1831.72L98.623,1832.15L98.694,1832.65C99.175,1835.41 101.253,1838.77 101.392,1839L101.393,1839L101.392,1839.01L101.392,1839C101.161,1838.64 95.555,1829.87 100.604,1829.07ZM89.297,1836.3L89.318,1836.25L89.301,1836.29C89.131,1836.69 89.031,1837.07 88.989,1837.44L88.952,1837.74C88.972,1837.29 89.079,1836.81 89.297,1836.3ZM100.781,1829.04L100.717,1829.05L100.825,1829.04L100.781,1829.04ZM101.054,1829.02L101.013,1829.02L101.088,1829.02L101.054,1829.02ZM437.782,1779.59L408.934,1815.69C408.934,1815.69 363.237,1822.62 363.237,1822.62C363.237,1822.62 392.085,1786.51 392.085,1786.51L437.782,1779.59ZM196.372,1714.52L196.372,1795.45C196.372,1798.85 199.043,1802.94 205.394,1805.77C214.807,1809.95 233.75,1812.96 255.59,1812.96C277.43,1812.96 296.373,1809.95 305.786,1805.77C312.136,1802.94 314.808,1798.85 314.808,1795.45L314.808,1714.52L314.808,1714.48C314.787,1711.08 312.112,1707.01 305.786,1704.2C296.373,1700.01 277.43,1697 255.59,1697C233.75,1697 214.807,1700.01 205.394,1704.2C199.043,1707.02 196.372,1711.11 196.372,1714.52ZM304.808,1725.25C295.101,1729.22 276.698,1732.03 255.59,1732.03C234.482,1732.03 216.079,1729.22 206.372,1725.25L206.372,1794.77C206.68,1795.02 207.28,1795.51 207.788,1795.79C209.227,1796.62 211.104,1797.37 213.34,1798.07C222.869,1801.07 238.254,1802.96 255.59,1802.96C272.926,1802.96 288.311,1801.07 297.84,1798.07C300.076,1797.37 301.953,1796.62 303.392,1795.79C303.9,1795.51 304.5,1795.02 304.808,1794.77L304.808,1725.25ZM96.295,1737.03C82.931,1737.03 72.082,1747.88 72.082,1761.24C72.082,1774.6 82.931,1785.45 96.295,1785.45C109.658,1785.45 120.507,1774.6 120.507,1761.24C120.507,1747.88 109.658,1737.03 96.295,1737.03ZM96.295,1747.03C104.139,1747.03 110.507,1753.39 110.507,1761.24C110.507,1769.08 104.139,1775.45 96.295,1775.45C88.45,1775.45 82.082,1769.08 82.082,1761.24C82.082,1753.39 88.45,1747.03 96.295,1747.03ZM303.926,1714.52C303.748,1714.64 303.565,1714.76 303.392,1714.86C301.953,1715.68 300.076,1716.43 297.84,1717.13C288.311,1720.13 272.926,1722.03 255.59,1722.03C238.254,1722.03 222.869,1720.13 213.34,1717.13C211.104,1716.43 209.227,1715.68 207.788,1714.86C207.615,1714.76 207.432,1714.64 207.254,1714.52C207.432,1714.39 207.615,1714.27 207.788,1714.17C209.227,1713.35 211.104,1712.6 213.34,1711.89C222.869,1708.89 238.254,1707 255.59,1707C272.926,1707 288.311,1708.89 297.84,1711.89C300.076,1712.6 301.953,1713.35 303.392,1714.17C303.565,1714.27 303.748,1714.39 303.926,1714.52Z"/></g></g><text x="0" y="527" fill="#000000" font-size="5px" font-weight="bold" font-family="'Helvetica Neue', Helvetica, Arial-Unicode, Arial, Sans-serif">Created by Anditii Creative</text><text x="0" y="532" fill="#000000" font-size="5px" font-weight="bold" font-family="'Helvetica Neue', Helvetica, Arial-Unicode, Arial, Sans-serif">from the Noun Project</text></svg>