<svg xmlns="http://www.w3.org/2000/svg" xmlns:xlink="http://www.w3.org/1999/xlink" xmlns:serif="http://www.serif.com/" viewBox="0 0 512 640" version="1.1" xml:space="preserve" style="" x="0px" y="0px" fill-rule="evenodd" clip-rule="evenodd" stroke-linejoin="round" stroke-miterlimit="2"><g transform="matrix(1,0,0,1,-2248,-1124)"><g><path d="M2364.12,1488.15C2364.12,1488.16 2364.12,1488.17 2364.12,1488.19L2364.12,1511.85C2323.93,1516.61 2293.56,1523.45 2278.66,1531.22C2269.91,1535.78 2266,1541.33 2266,1546.34L2266,1583.17C2266,1586.86 2267.89,1590.7 2272.24,1594.2C2276.88,1597.93 2284.8,1601.59 2295.57,1604.87C2334.64,1616.78 2413.35,1625 2504,1625C2594.65,1625 2673.36,1616.78 2712.43,1604.87C2723.2,1601.59 2731.12,1597.93 2735.76,1594.2C2740.11,1590.7 2742,1586.86 2742,1583.17C2742,1583.17 2742,1546.34 2742,1546.34C2742,1541.33 2738.09,1535.78 2729.34,1531.22C2714.44,1523.45 2684.07,1516.61 2643.88,1511.85L2643.88,1488.19C2643.88,1488.17 2643.88,1488.16 2643.88,1488.15C2643.87,1485.49 2642.61,1482.67 2639.48,1480.16C2636.65,1477.88 2631.84,1475.61 2625.27,1473.61C2602.54,1466.68 2556.75,1461.87 2504,1461.87C2451.25,1461.87 2405.46,1466.68 2382.73,1473.61C2376.16,1475.61 2371.35,1477.88 2368.52,1480.16C2365.39,1482.67 2364.13,1485.49 2364.12,1488.15ZM2276,1559.95L2276,1583.17C2276,1583.88 2276.51,1584.47 2277.14,1585.15C2277.98,1586.06 2279.11,1586.93 2280.47,1587.8C2284.61,1590.45 2290.71,1592.94 2298.48,1595.31C2337,1607.05 2414.62,1615 2504,1615C2593.38,1615 2671,1607.05 2709.52,1595.31C2717.29,1592.94 2723.39,1590.45 2727.53,1587.8C2728.89,1586.93 2730.02,1586.06 2730.86,1585.15C2731.49,1584.47 2732,1583.88 2732,1583.17L2732,1559.95C2727.28,1562.78 2720.7,1565.52 2712.43,1568.04C2673.36,1579.95 2594.65,1588.17 2504,1588.17C2413.35,1588.17 2334.64,1579.95 2295.57,1568.04C2287.3,1565.52 2280.72,1562.78 2276,1559.95ZM2643.88,1521.92L2643.88,1530.83C2643.88,1533.5 2642.62,1536.33 2639.48,1538.85C2636.65,1541.13 2631.84,1543.4 2625.27,1545.4C2602.54,1552.33 2556.75,1557.15 2504,1557.15C2451.25,1557.15 2405.46,1552.33 2382.73,1545.4C2376.16,1543.4 2371.35,1541.13 2368.52,1538.85C2365.38,1536.33 2364.12,1533.5 2364.12,1530.83L2364.12,1521.92C2326.16,1526.46 2297.43,1532.71 2283.29,1540.09C2280.64,1541.47 2278.57,1542.84 2277.19,1544.3C2276.53,1545 2276,1545.61 2276,1546.34C2276,1547.04 2276.51,1547.64 2277.14,1548.32C2277.98,1549.23 2279.11,1550.1 2280.47,1550.97C2284.61,1553.62 2290.71,1556.11 2298.48,1558.48C2337,1570.22 2414.62,1578.17 2504,1578.17C2593.38,1578.17 2671,1570.22 2709.52,1558.48C2717.29,1556.11 2723.39,1553.62 2727.53,1550.97C2728.89,1550.1 2730.02,1549.23 2730.86,1548.32C2731.49,1547.64 2732,1547.04 2732,1546.34C2732,1545.61 2731.47,1545 2730.81,1544.3C2729.43,1542.84 2727.36,1541.47 2724.71,1540.09C2710.57,1532.71 2681.84,1526.46 2643.88,1521.92ZM2374.12,1499.54L2374.12,1516.25C2374.12,1516.29 2374.12,1516.34 2374.12,1516.38L2374.12,1530.39C2374.39,1530.65 2375.12,1531.34 2375.74,1531.74C2378.01,1533.19 2381.38,1534.54 2385.64,1535.84C2407.83,1542.6 2452.53,1547.15 2504,1547.15C2555.47,1547.15 2600.17,1542.6 2622.36,1535.84C2626.62,1534.54 2629.99,1533.19 2632.26,1531.74C2632.88,1531.34 2633.61,1530.65 2633.88,1530.39L2633.88,1516.38C2633.88,1516.34 2633.88,1516.29 2633.88,1516.25L2633.88,1499.54C2631.48,1500.66 2628.6,1501.75 2625.27,1502.76C2602.54,1509.69 2556.75,1514.51 2504,1514.51C2451.25,1514.51 2405.46,1509.69 2382.73,1502.76C2379.4,1501.75 2376.52,1500.66 2374.12,1499.54ZM2633.41,1488.19C2633.08,1488.49 2632.65,1488.85 2632.26,1489.1C2629.99,1490.55 2626.62,1491.9 2622.36,1493.2C2600.17,1499.96 2555.47,1504.51 2504,1504.51C2452.53,1504.51 2407.83,1499.96 2385.64,1493.2C2381.38,1491.9 2378.01,1490.55 2375.74,1489.1C2375.35,1488.85 2374.92,1488.49 2374.59,1488.19C2374.92,1487.89 2375.35,1487.52 2375.74,1487.28C2378.01,1485.82 2381.38,1484.48 2385.64,1483.17C2407.83,1476.41 2452.53,1471.87 2504,1471.87C2555.47,1471.87 2600.17,1476.41 2622.36,1483.17C2626.62,1484.48 2629.99,1485.82 2632.26,1487.28C2632.65,1487.52 2633.08,1487.89 2633.41,1488.19ZM2331.59,1493.66L2331.59,1454.02C2331.59,1451.26 2329.35,1449.02 2326.59,1449.02C2323.83,1449.02 2321.59,1451.26 2321.59,1454.02L2321.59,1493.66C2321.59,1496.42 2323.83,1498.66 2326.59,1498.66C2329.35,1498.66 2331.59,1496.42 2331.59,1493.66ZM2686.41,1493.66L2686.41,1373.27C2686.41,1370.51 2684.17,1368.27 2681.41,1368.27C2678.65,1368.27 2676.41,1370.51 2676.41,1373.27L2676.41,1493.66C2676.41,1496.42 2678.65,1498.66 2681.41,1498.66C2684.17,1498.66 2686.41,1496.42 2686.41,1493.66ZM2303.39,1445L2303.39,1421.94C2303.39,1419.18 2301.15,1416.94 2298.39,1416.94C2295.63,1416.94 2293.39,1419.18 2293.39,1421.94L2293.39,1445C2293.39,1447.76 2295.63,1450 2298.39,1450C2301.15,1450 2303.39,1447.76 2303.39,1445ZM2618.62,1373.56C2599.18,1373.56 2583.4,1389.34 2583.4,1408.78C2583.4,1428.22 2599.18,1444 2618.62,1444C2638.05,1444 2653.84,1428.22 2653.84,1408.78C2653.84,1389.34 2638.05,1373.56 2618.62,1373.56ZM2331.59,1434.61L2331.59,1296.6C2331.59,1293.84 2329.35,1291.6 2326.59,1291.6C2323.83,1291.6 2321.59,1293.84 2321.59,1296.6L2321.59,1434.61C2321.59,1437.37 2323.83,1439.61 2326.59,1439.61C2329.35,1439.61 2331.59,1437.37 2331.59,1434.61ZM2354.16,1296.6C2354.16,1296.6 2354.16,1423.1 2354.16,1423.1C2354.16,1426.34 2356.66,1430.27 2362.7,1432.96C2371.38,1436.82 2388.85,1439.61 2408.99,1439.61C2429.13,1439.61 2446.6,1436.82 2455.28,1432.96C2461.32,1430.27 2463.82,1426.34 2463.82,1423.1L2463.82,1296.6C2463.82,1293.36 2461.32,1289.43 2455.28,1286.75C2446.6,1282.88 2429.13,1280.1 2408.99,1280.1C2388.85,1280.1 2371.38,1282.88 2362.7,1286.75C2356.66,1289.43 2354.16,1293.36 2354.16,1296.6ZM2532.7,1433.47L2532.7,1410.41C2532.7,1407.65 2530.46,1405.41 2527.7,1405.41C2524.94,1405.41 2522.7,1407.65 2522.7,1410.41L2522.7,1433.47C2522.7,1436.23 2524.94,1438.47 2527.7,1438.47C2530.46,1438.47 2532.7,1436.23 2532.7,1433.47ZM2618.62,1383.56C2632.54,1383.56 2643.84,1394.86 2643.84,1408.78C2643.84,1422.7 2632.54,1434 2618.62,1434C2604.7,1434 2593.4,1422.7 2593.4,1408.78C2593.4,1394.86 2604.7,1383.56 2618.62,1383.56ZM2364.16,1307.06L2364.16,1422.24C2365,1422.75 2367.74,1424.33 2370.28,1425.12C2379.01,1427.87 2393.11,1429.61 2408.99,1429.61C2424.87,1429.61 2438.97,1427.87 2447.7,1425.12C2450.24,1424.33 2452.98,1422.75 2453.82,1422.24L2453.82,1307.06C2444.72,1310.6 2428.05,1313.1 2408.99,1313.1C2389.93,1313.1 2373.25,1310.6 2364.16,1307.06ZM2553.75,1146.86C2553.75,1146.86 2553.72,1146.86 2553.72,1146.86L2553.7,1146.87C2553.67,1146.87 2553.64,1146.87 2553.61,1146.87L2553.61,1146.87C2552.74,1146.89 2551.92,1147.14 2551.21,1147.56L2551.18,1147.57C2550.45,1148.02 2549.83,1148.64 2549.4,1149.41L2549.38,1149.43C2549.26,1149.65 2549.15,1149.89 2549.07,1150.12L2506.66,1258.13C2506.44,1258.69 2506.33,1259.27 2506.31,1259.83L2506.31,1259.86C2506.3,1260.46 2506.39,1261.08 2506.62,1261.69L2506.64,1261.74L2506.64,1261.76L2506.66,1261.79L2549.07,1369.8C2549.15,1370.04 2549.26,1370.27 2549.38,1370.49L2549.4,1370.51C2549.83,1371.28 2550.45,1371.91 2551.18,1372.35L2551.21,1372.37C2551.92,1372.79 2552.74,1373.03 2553.61,1373.06L2553.61,1373.06C2553.64,1373.06 2553.67,1373.06 2553.7,1373.06L2553.72,1373.06L2553.75,1373.06L2553.8,1373.06L2553.81,1373.06C2553.84,1373.06 2553.87,1373.06 2553.9,1373.06L2553.9,1373.06C2554.77,1373.03 2555.59,1372.79 2556.3,1372.37L2556.32,1372.35C2557.06,1371.91 2557.68,1371.28 2558.11,1370.51L2558.12,1370.49C2558.25,1370.27 2558.35,1370.04 2558.44,1369.8L2600.85,1261.79L2600.86,1261.76L2600.87,1261.74L2600.89,1261.69C2601.11,1261.08 2601.21,1260.46 2601.2,1259.86L2601.2,1259.83C2601.18,1259.27 2601.07,1258.69 2600.85,1258.13L2558.44,1150.12C2558.35,1149.88 2558.25,1149.65 2558.12,1149.43L2558.11,1149.41C2557.68,1148.64 2557.06,1148.02 2556.32,1147.57L2556.3,1147.56C2555.59,1147.14 2554.77,1146.89 2553.9,1146.87L2553.9,1146.87C2553.87,1146.87 2553.84,1146.87 2553.81,1146.87L2553.75,1146.86ZM2686.41,1350.13L2686.41,1244.23C2686.41,1241.47 2684.17,1239.23 2681.41,1239.23C2678.65,1239.23 2676.41,1241.47 2676.41,1244.23L2676.41,1350.13C2676.41,1352.89 2678.65,1355.13 2681.41,1355.13C2684.17,1355.13 2686.41,1352.89 2686.41,1350.13ZM2714.61,1344.37L2714.61,1321.3C2714.61,1318.54 2712.37,1316.3 2709.61,1316.3C2706.85,1316.3 2704.61,1318.54 2704.61,1321.3L2704.61,1344.37C2704.61,1347.12 2706.85,1349.37 2709.61,1349.37C2712.37,1349.37 2714.61,1347.12 2714.61,1344.37ZM2485.3,1344.37L2485.3,1321.3C2485.3,1318.54 2483.06,1316.3 2480.3,1316.3C2477.54,1316.3 2475.3,1318.54 2475.3,1321.3L2475.3,1344.37C2475.3,1347.12 2477.54,1349.37 2480.3,1349.37C2483.06,1349.37 2485.3,1347.12 2485.3,1344.37ZM2558.75,1286.84L2558.75,1341.64L2586.4,1271.24L2558.75,1286.84ZM2548.75,1341.64L2548.75,1286.84L2521.11,1271.24L2548.75,1341.64ZM2452.29,1296.6C2451.05,1297.26 2449.33,1298.1 2447.7,1298.62C2438.97,1301.37 2424.87,1303.1 2408.99,1303.1C2393.11,1303.1 2379.01,1301.37 2370.28,1298.62C2368.65,1298.1 2366.93,1297.26 2365.69,1296.6C2366.93,1295.93 2368.65,1295.09 2370.28,1294.58C2379.01,1291.83 2393.11,1290.1 2408.99,1290.1C2424.87,1290.1 2438.97,1291.83 2447.7,1294.58C2449.33,1295.09 2451.05,1295.93 2452.29,1296.6ZM2643.61,1287.66L2643.61,1264.6C2643.61,1261.84 2641.37,1259.6 2638.61,1259.6C2635.85,1259.6 2633.61,1261.84 2633.61,1264.6L2633.61,1287.66C2633.61,1290.42 2635.85,1292.66 2638.61,1292.66C2641.37,1292.66 2643.61,1290.42 2643.61,1287.66ZM2331.59,1272.28L2331.59,1249.22C2331.59,1246.46 2329.35,1244.22 2326.59,1244.22C2323.83,1244.22 2321.59,1246.46 2321.59,1249.22L2321.59,1272.28C2321.59,1275.04 2323.83,1277.28 2326.59,1277.28C2329.35,1277.28 2331.59,1275.04 2331.59,1272.28ZM2517.55,1257.75L2548.75,1275.36L2548.75,1178.28L2517.55,1257.75ZM2558.75,1178.28L2558.75,1275.36L2589.95,1257.75L2558.75,1178.28ZM2391.87,1255.76L2391.87,1232.7C2391.87,1229.94 2389.63,1227.7 2386.87,1227.7C2384.11,1227.7 2381.87,1229.94 2381.87,1232.7L2381.87,1255.76C2381.87,1258.52 2384.11,1260.76 2386.87,1260.76C2389.63,1260.76 2391.87,1258.52 2391.87,1255.76ZM2420.84,1135.63L2420.82,1135.65C2420.1,1136.05 2419.47,1136.63 2419.02,1137.38L2419.02,1137.38C2419,1137.4 2418.99,1137.43 2418.97,1137.45L2418.96,1137.47L2418.94,1137.5C2418.94,1137.5 2392.09,1184.01 2392.09,1184.01C2391.06,1185.8 2391.23,1188.03 2392.51,1189.63L2419.35,1223.23C2419.71,1223.7 2420.17,1224.12 2420.71,1224.44L2420.74,1224.46L2420.78,1224.49L2420.81,1224.5L2420.84,1224.52L2420.86,1224.54L2420.89,1224.55L2420.91,1224.56C2421.46,1224.86 2422.05,1225.05 2422.64,1225.13L2465.15,1231.57C2467.19,1231.88 2469.2,1230.91 2470.23,1229.13L2497.09,1182.62L2497.11,1182.57L2497.11,1182.57C2497.13,1182.54 2497.14,1182.52 2497.16,1182.49L2497.16,1182.49C2497.57,1181.72 2497.76,1180.89 2497.76,1180.07L2497.76,1180.04C2497.74,1179.18 2497.51,1178.33 2497.06,1177.57L2497.04,1177.54C2496.91,1177.33 2496.77,1177.12 2496.6,1176.92L2469.77,1143.34C2468.99,1142.35 2467.86,1141.7 2466.62,1141.51L2424.12,1135.07C2423.86,1135.03 2423.61,1135.01 2423.36,1135L2423.33,1135C2422.45,1134.99 2421.59,1135.21 2420.84,1135.63ZM2686.41,1220.99L2686.41,1174.89C2686.41,1172.13 2684.17,1169.89 2681.41,1169.89C2678.65,1169.89 2676.41,1172.13 2676.41,1174.89L2676.41,1220.99C2676.41,1223.75 2678.65,1225.99 2681.41,1225.99C2684.17,1225.99 2686.41,1223.75 2686.41,1220.99ZM2484.76,1183.96L2452.79,1179.11L2431.3,1216.33L2463.28,1221.18L2484.76,1183.96ZM2402.45,1186.06L2422.64,1211.33L2444.13,1174.11L2423.94,1148.85L2402.45,1186.06ZM2613.06,1186.42L2613.06,1163.36C2613.06,1160.6 2610.82,1158.36 2608.06,1158.36C2605.3,1158.36 2603.06,1160.6 2603.06,1163.36L2603.06,1186.42C2603.06,1189.18 2605.3,1191.42 2608.06,1191.42C2610.82,1191.42 2613.06,1189.18 2613.06,1186.42ZM2358.56,1174.89L2358.56,1151.83C2358.56,1149.07 2356.32,1146.83 2353.56,1146.83C2350.8,1146.83 2348.56,1149.07 2348.56,1151.83L2348.56,1174.89C2348.56,1177.65 2350.8,1179.89 2353.56,1179.89C2356.32,1179.89 2358.56,1177.65 2358.56,1174.89ZM2435.15,1146.86L2463.18,1151.11C2463.18,1151.11 2480.88,1173.26 2480.88,1173.26C2480.88,1173.26 2452.85,1169.01 2452.85,1169.01L2435.15,1146.86Z"/></g></g><text x="0" y="527" fill="#000000" font-size="5px" font-weight="bold" font-family="'Helvetica Neue', Helvetica, Arial-Unicode, Arial, Sans-serif">Created by Anditii Creative</text><text x="0" y="532" fill="#000000" font-size="5px" font-weight="bold" font-family="'Helvetica Neue', Helvetica, Arial-Unicode, Arial, Sans-serif">from the Noun Project</text></svg>